<svg width="1920.0" height="1080.0" xmlns="http://www.w3.org/2000/svg" stroke="black"><path id="0" shape_id="" style="fill:#ffffff" d="M2 1,1 2,  1 813,  0 814,  0 929,  1 930,  1 955,  0 956,   0 1055,   1 1056,   1 1079,1919 1079,1919    2,1918    1,3 1"/><path id="1" shape_id="" style="fill:#ffffff" d="M   3 1060,   4 1059,  20 1075,  23 1077,  22 1078,   4 1078,   3 1077,   3 1061"/><path id="2" shape_id="" style="fill:#ffffff" d="M666 997,667 996,668 997, 681 1024, 688 1034, 689 1037, 692 1040, 696 1047, 705 1059, 721 1077, 720 1078, 629 1078, 628 1077, 632 1069, 632 1067, 638 1056, 638 1054, 645 1041, 645 1039,666 998"/><path id="3" shape_id="" style="fill:#ffffff" d="M1420  831,1421  830,1423  830,1424  831,1425  839,1426  840,1426  858,1425  859,1425  863,1424  864,1422  872,1414  886,1404  897,1397  902,1392  904,1390  906,1388  906,1382  909,1377  899,1377  887,1378  886,1378  882,1379  881,1380  874,1381  873,1383  865,1385  862,1385  860,1391  849,1403  836,1410  832,1419  831"/><path id="4" shape_id="" style="fill:#ffffff" d="M1091  774,1092  773,1097  773,1098  774,1128  775,1129  776,1147  776,1148  777,1165  777,1166  778,1165  779,1165  783,1163  788,1163  792,1161  797,1161  801,1159  806,1159  810,1157  815,1157  819,1156  820,1155  828,1154  829,1154  832,1152  837,1152  841,1150  846,1150  850,1148  855,1148  859,1147  860,1146  867,1145  868,1140  885,1138  888,1138  903,1137  904,1136  918,1135  919,1135  922,1133  925,1133  927,1130  931,1124  936,1114  941,1112  941,1099  947,1097  947,1086  952,1084  952,1080  954,1079  956,1076  956,1069  959,1066  959,1065  960,1062  960,1057  962,1053  962,1052  963,1046  963,1045  962,1046  956,1047  955,1047  951,1049  947,1049  943,1051  938,1051  934,1053  929,1053  925,1054  924,1054  920,1056  915,1056  911,1058  906,1058  902,1059  901,1059  897,1061  892,1061  888,1062  887,1062  883,1064  878,1064  874,1066  869,1066  865,1068  860,1068  856,1069  855,1069  851,1071  846,1071  842,1072  841,1072  837,1073  836,1075  822,1077  817,1077  813,1078  812,1079  805,1084  792,1084  789,1085  788,1087  780,1090  775"/><path id="5" shape_id="" style="fill:#ffffff" d="M1292  752,1293  751,1294  752,1294  754,1292  757,1289  768,1287  771,1285  779,1283  782,1279  796,1277  799,1275  807,1273  810,1270  821,1268  824,1265  835,1263  838,1260  849,1258  852,1255  863,1253  866,1250  877,1248  880,1245  891,1243  894,1240  905,1238  908,1238  910,1237  911,1236  916,1234  919,1229  935,1227  937,1221  937,1220  936,1207  935,1206  934,1201  934,1200  933,1194  933,1193  932,1173  930,1168  928,1170  918,1171  917,1171  914,1172  913,1172  910,1173  909,1173  906,1174  905,1174  902,1175  901,1175  898,1176  897,1176  894,1177  893,1177  890,1178  889,1178  886,1179  885,1179  882,1180  881,1180  878,1181  877,1181  874,1182  873,1182  870,1184  866,1184  863,1185  862,1185  859,1186  858,1186  855,1187  854,1187  851,1188  850,1188  847,1190  842,1190  839,1192  835,1192  832,1193  831,1193  828,1194  827,1197  812,1199  808,1199  805,1200  804,1200  801,1201  800,1201  797,1202  796,1202  793,1203  792,1203  789,1204  788,1207  773,1208  772,1211  772,1216  774,1220  774,1221  775,1225  775,1226  776,1234  776,1235  777,1246  776,1247  775,1250  775,1251  774,1256  773,1271  766,1291  753"/><path id="6" shape_id="" style="fill:#ffffff" d="M1421  739,1422  738,1456  738,1457  739,1467  739,1468  740,1453  800,1452  801,1444  792,1437  787,1427  783,1424  783,1423  782,1417  782,1416  781,1403  781,1402  782,1396  782,1395  783,1385  785,1374  790,1372  792,1363  797,1343  816,1338  824,1335  827,1326  845,1326  847,1322  857,1321  865,1320  866,1320  870,1319  871,1319  900,1320  901,1320  906,1321  907,1321  910,1322  911,1324  919,1330  931,1337  939,1337  940,1338  940,1343  945,1350  949,1349  950,1334  950,1333  949,1320  949,1319  948,1305  948,1304  947,1296  947,1295  946,1287  946,1286  945,1273  944,1271  942,1276  929,1276  926,1277  925,1288  890,1290  887,1290  885,1291  884,1295  870,1297  867,1300  856,1302  853,1304  845,1306  842,1306  840,1307  839,1308  834,1310  831,1312  823,1314  820,1316  812,1318  809,1319  804,1321  801,1322  796,1324  793,1325  788,1327  785,1328  780,1330  777,1331  772,1333  769,1335  761,1337  758,1337  756,1340  749,1341  748,1349  747,1350  746,1354  746,1355  745,1367  744,1368  743,1374  743,1375  742,1382  742,1383  741,1389  741,1390  740,1420  739"/><path id="7" shape_id="" style="fill:#ffffff" d="M1187  733,1188  732,1190  733,1190  743,1189  744,1183  743,1182  742,1178  742,1177  741,1171  741,1170  740,1171  738,1173  738,1177  736,1180  736,1186  733"/><path id="8" shape_id="" style="fill:#ffffff" d="M1353  681,1354  680,1355  681,1359  681,1364  683,1368  683,1372  685,1379  686,1383  688,1386  688,1393  691,1396  691,1397  692,1403  693,1407  695,1410  695,1414  697,1413  698,1403  698,1402  699,1375  700,1374  701,1362  701,1361  702,1347  702,1346  703,1341  703,1340  704,1336  704,1334  705,1333  704,1337  701,1337  700,1344  693,1352  682"/><path id="9" shape_id="" style="fill:#ffffff" d="M1303  647,1304  646,1318  646,1324  649,1328  654,1315  679,1315  681,1311  689,1310  694,1307  697,1304  697,1293  703,1261  727,1258  728,1251  733,1238  739,1231  739,1229  737,1229  728,1230  727,1230  724,1232  721,1232  719,1240  706,1244  702,1244  701,1297  649,1302  647"/><path id="10" shape_id="" style="fill:#ffffff" d="M1057  639,1058  638,1059  639,1058  641,1058  646,1057  647,1057  665,1058  666,1058  669,1059  670,1060  675,1064  682,1074  692,1083  697,1085  697,1089  699,1108  699,1110  698,1111  699,1111  708,1112  709,1112  712,1116  721,1124  730,1131  735,1130  736,1125  736,1124  735,1113  734,1112  733,1109  733,1108  732,1105  732,1104  731,1101  731,1096  729,1079  729,1078  730,1073  731,1070  733,1061  742,1053  758,1052  763,1050  766,1050  768,1045  781,1045  784,1042  791,1040  801,1038  805,1038  808,1037  809,1037  812,1036  813,1036  816,1035  817,1035  820,1034  821,1034  824,1032  829,1032  833,1031  834,1031  837,1029  842,1029  846,1027  851,1026  860,1024  865,1024  869,1023  870,1023  874,1021  879,1021  883,1020  884,1020  888,1019  889,1018  895,1017  896,1015  896,1010  894,1005  890,1003  886,1003  878,1004  877,1004  871,1005  870,1005  864,1006  863,1006  857,1007  856,1009  836,1010  835,1011  823,1012  822,1013  812,1014  811,1014  807,1015  806,1015  801,1016  800,1016  796,1017  795,1017  790,1018  789,1018  785,1019  784,1019  779,1020  778,1020  774,1021  773,1021  768,1022  767,1022  763,1023  762,1023  758,1024  757,1024  753,1025  752,1027  738,1029  733,1030  724,1031  723,1031  720,1033  715,1033  711,1034  710,1034  707,1035  706,1035  703,1036  702,1036  699,1037  698,1037  695,1038  694,1038  691,1040  686,1040  682,1041  681,1041  678,1042  677,1045  662,1046  661,1049  650,1053  643,1056  640"/><path id="11" shape_id="" style="fill:#ffffff" d="M1253  615,1254  614,1260  614,1268  617,1273  621,1273  623,1269  626,1269  627,1265  631,1262  637,1262  642,1259  645,1252  648,1250  650,1247  651,1238  657,1230  664,1229  664,1223  670,1222  670,1208  685,1203  692,1198  702,1195  700,1179  700,1178  701,1163  702,1162  703,1154  703,1153  702,1151  702,1149  700,1147  695,1148  693,1148  688,1155  674,1171  657,1172  657,1177  652,1189  644,1192  641,1213  627,1216  626,1232  615,1252  615"/><path id="12" shape_id="" style="fill:#ffffff" d="M1056  598,1057  597,1065  597,1066  598,1057  603,1046  604,1045  605,1037  607,1031  611,1022  620,1019  626,1017  628,1008  651,1008  654,1007  655,1007  657,1005  661,1005  664,1003  668,1003  671,1000  679,1000  682,999 683,999 686,998 687,998 690,996 695,996 699,994 704,991 699,991 697,989 693,989 688,988 687,988 672,989 671,989 666,990 665,990 661,991 660,991 657,992 656,993 651,1001  635,1006  628,1024  611,1042  601,1044  601,1048  599,1051  599,1052  598,1055  598"/><path id="13" shape_id="" style="fill:#ffffff" d="M1178  592,1179  591,1182  591,1183  592,1189  592,1190  593,1200  594,1201  596,1198  600,1165  617,1160  621,1154  624,1142  634,1141  634,1126  649,1121  656,1119  660,1119  662,1116  667,1114  666,1102  665,1098  663,1094  658,1094  656,1093  655,1094  648,1098  639,1102  633,1114  621,1130  610,1156  598,1177  592"/><path id="14" shape_id="" style="fill:#ffffff" d="M349 566,350 565,352 565,354 567,355 570,358 573,362 580,374 596,379 601,384 608,398 622,398 623,415 639,416 639,432 653,436 655,452 667,455 668,460 672,470 677,472 679,503 694,505 694,518 700,520 700,542 708,545 708,552 711,555 711,556 712,559 712,564 714,568 714,573 716,578 716,579 717,589 718,590 719,596 719,597 720,603 720,604 721,613 721,614 722,623 722,624 723,674 723,675 722,684 722,685 721,692 721,693 720,699 720,700 719,704 719,705 718,716 717,717 716,720 716,721 715,736 712,740 710,743 710,744 709,761 704,772 699,773 700,773 703,774 704,777 719,779 723,781 734,785 745,785 748,788 755,788 758,794 774,794 777,795 778,799 792,801 795,801 797,802 798,808 818,810 821,812 829,814 832,815 837,821 850,824 860,830 872,830 874,834 881,834 883,847 908,855 920,858 926,858 928,861 933,861 935,872 955,881 967,889 975,899 981,905 982,913 985,916 985,917 986,921 986,926 988,930 988,931 989,950 989,951 988,954 988,955 987,960 986,971 981,984 972,993 963,999 960,1001  960,1002  961,1002  964,1001  965,1001  970,1000  971,1000  980,1001  981,1002  988,1005  993,1012  999,1019 1002,1027 1003,1028 1004,1044 1004,1045 1003,1057 1002,1058 1001,1061 1001,1062 1000,1065 1000,1066  999,1069  999,1070  998,1073  998,1074  997,1077  997,1078  996,1081  996,1082  995,1097  992,1101  990,1116  987,1120  985,1123  985,1142  978,1144  976,1147  975,1152  970,1202  979,1203  980,1202  981,1201  981,1177 1001,1172 1004,1168 1008,1159 1014,1155 1018,1127 1039,1099 1058,1096 1059,1091 1063,1088 1064,1086 1066,1083 1067,1081 1069,1065 1078, 788 1078, 772 1063, 772 1062, 758 1047, 740 1023,724 998,719 996,711 979,707 974,703 966,699 952,694 945,698 939,700 934,704 929,708 928,711 926,713 926,715 924,727 919,729 917,735 914,740 908,740 906,741 905,741 896,739 892,735 889,730 889,729 888,741 870,743 865,745 863,745 861,747 857,747 849,746 848,746 846,740 841,732 841,724 845,714 855,714 856,703 868,694 880,688 890,685 893,684 896,678 904,677 907,666 924,664 929,662 931,660 936,658 938,643 967,641 969,636 980,634 982,626 999, 624 1001, 615 1019, 615 1021, 605 1040, 605 1042, 600 1051, 600 1053, 596 1060, 596 1062, 593 1067, 593 1069, 590 1074, 590 1076, 588 1078, 585 1076, 585 1074, 586 1073, 586 1067, 587 1066, 587 1060, 588 1059, 590 1039, 591 1038, 591 1033, 592 1032, 592 1025, 593 1024, 594 1012, 595 1011, 595 1005, 596 1004,596 997,595 996,595 993,593 990,593 988,591 986,588 980,572 965,556 957,546 955,545 954,541 954,540 953,533 953,532 952,509 952,507 949,505 942,502 936,500 934,498 929,488 915,482 909,482 908,471 897,470 897,460 888,451 883,449 881,445 879,443 879,436 875,433 875,432 874,429 874,424 872,403 872,402 873,398 873,397 874,392 875,379 881,377 883,374 884,365 890,348 904,347 904,338 913,337 913,316 935,310 939,303 942,300 942,299 943,264 943,263 942,254 942,253 941,246 941,245 940,233 939,232 938,217 935,216 933,223 919,225 917,232 904,236 899,237 896,247 881,250 878,252 874,267 854,271 850,271 849,281 838,281 837,297 820,297 819,328 788,329 788,337 780,338 780,360 760,361 760,367 754,375 748,385 738,389 730,390 722,389 721,389 717,388 715,383 710,381 710,380 709,372 709,371 710,365 711,353 717,330 732,315 745,314 745,307 752,306 752,265 793,265 794,255 804,255 805,243 818,236 828,232 832,207 868,188 904,188 906,185 911,183 918,180 923,178 923,162 915,160 915,156 912,145 907,133 899,121 894,111 894,110 895,108 895,105 898,103 903,103 912,110 924,127 940,142 950,167 962,169 962,172 964,174 964,190 970,193 970,197 972,200 972,201 973,204 973,205 974,208 974,209 975,212 975,213 976,216 976,221 978,230 979,235 981,240 981,241 982,246 982,247 983,252 983,253 984,282 985,283 986,307 986,308 985,313 985,314 984,324 982,334 977,354 958,354 957,361 950,361 949,373 937,374 937,381 930,382 930,390 923,406 914,409 914,410 913,420 913,421 914,423 914,426 916,430 917,433 920,437 922,452 937,461 949,465 956,461 958,457 958,453 960,450 960,449 961,441 963,434 967,431 971,431 979,435 983,442 984,443 985,450 986,451 987,467 988,468 989,528 990,529 991,535 991,536 992,539 992,547 995, 556 1003, 559 1011, 558 1023, 557 1024, 556 1029, 541 1057, 540 1063, 539 1064, 539 1068, 538 1069, 538 1074, 539 1075, 539 1077, 538 1078,  82 1078,  80 1077,  48 1046,  48 1045,  43 1040,  40 1035,  33 1027,  23 1012,  18 1002,  16 1000, 10 988, 10 986,  8 983,  8 981,  6 978,  6 976,  3 969,  3 914,  4 913,  5 907,  6 906,  8 898, 10 895, 11 890, 15 883, 15 881, 21 869, 23 867, 26 860, 28 858, 32 850, 44 832, 47 829, 49 825, 67 801, 84 781, 88 775,111 750,111 749,125 735,125 734,162 698,163 698,180 682,181 682,187 676,188 676,205 661,211 657,216 652,252 625,294 597,302 593,307 589,348 566"/><path id="15" shape_id="" style="fill:#ffffff" d="M620  68,621  67,658  67,659  68,670  68,671  69,691  71,692  72,706  74,707  75,710  75,711  76,714  76,715  77,730  80,731  81,754  88,762  92,764  92,794 107,796 109,799 110,816 121,832 134,833 134,838 139,839 139,859 158,859 159,869 169,869 170,879 181,900 211,901 214,905 219,908 226,910 228,921 250,921 252,924 257,924 259,926 262,926 264,928 267,929 272,931 275,931 277,933 281,933 284,936 291,936 294,938 298,939 306,941 311,941 315,942 316,942 320,943 321,943 327,944 328,944 334,945 335,945 344,946 345,946 362,947 363,947 373,946 374,946 392,945 393,945 402,944 403,944 410,943 411,943 417,942 418,942 423,941 424,941 428,940 429,940 434,939 435,939 438,938 439,935 454,933 458,933 461,932 462,928 476,926 479,925 484,923 487,923 489,907 522,905 524,903 529,899 534,894 543,891 546,883 558,874 568,874 569,859 585,858 585,845 598,844 598,832 609,804 629,801 630,794 635,787 638,785 640,753 655,751 655,743 659,741 659,725 665,722 665,718 667,715 667,710 669,706 669,701 671,697 671,696 672,691 672,690 673,685 673,684 674,676 674,675 675,667 675,666 676,625 676,624 675,614 675,613 674,606 674,605 673,599 673,598 672,587 671,582 669,573 668,572 667,561 665,557 663,554 663,553 662,533 656,530 654,523 652,518 649,516 649,507 644,503 643,501 641,483 632,462 618,458 614,447 606,419 579,419 578,412 571,412 570,404 561,383 531,382 528,377 521,374 514,372 512,357 480,357 478,355 475,355 473,348 454,348 451,346 447,346 444,344 439,344 435,342 430,341 420,340 419,339 405,338 404,338 393,337 392,337 358,338 357,339 337,340 336,340 330,341 329,341 324,342 323,342 319,343 318,345 304,346 303,349 288,351 284,351 281,352 280,358 260,362 252,362 250,373 227,375 225,378 218,380 216,381 213,385 208,390 199,393 196,398 188,406 179,406 178,434 149,435 149,442 142,443 142,452 134,476 117,479 116,494 106,501 103,503 101,526  90,528  90,533  87,535  87,541  84,543  84,559  78,562  78,566  76,569  76,574  74,578  74,579  73,583  73,584  72,588  72,589  71,599  70,600  69,619  68"/><path id="16" shape_id="" style="fill:#ffffff" d="M684 446,683 447,672 447,671 448,663 448,662 449,650 450,649 451,646 451,645 452,642 452,641 453,626 456,622 458,619 458,618 459,613 460,610 462,605 463,602 465,600 465,597 467,595 467,587 471,573 481,560 494,551 507,544 521,544 524,542 527,540 537,539 538,539 542,538 543,538 553,541 559,549 565,554 565,555 566,857 565,858 564,862 564,866 562,872 554,872 550,873 549,872 532,871 531,870 521,867 515,867 513,864 508,863 504,857 496,851 490,851 489,842 481,830 473,811 464,809 464,796 459,793 459,789 457,785 457,784 456,781 456,777 454,773 454,768 452,759 451,758 450,744 449,743 448,735 448,734 447,721 447,720 446,685 446"/><path id="17" shape_id="" style="fill:#ffffff" d="M690 482,691 481,712 481,713 482,727 482,728 483,744 484,745 485,756 486,761 488,765 488,766 489,774 490,782 493,785 493,786 494,797 497,800 499,799 500,614 500,613 499,614 498,616 498,627 493,633 492,644 488,648 488,649 487,652 487,657 485,662 485,663 484,668 484,669 483,689 482"/><path id="18" shape_id="" style="fill:#ffffff" d="M867 395,859 399,851 408,849 413,849 416,848 417,848 427,849 428,850 434,854 440,861 446,868 449,883 449,892 445,900 436,903 428,903 415,902 414,902 412,899 406,891 398,884 395,868 395"/><path id="19" shape_id="" style="fill:#ffffff" d="M547 395,540 398,535 402,532 406,528 415,528 428,532 438,539 445,547 449,563 449,570 446,578 439,579 436,581 434,582 428,583 427,583 417,582 416,581 410,578 405,572 399,564 395,548 395"/><path id="20" shape_id="" style="fill:#ffffff" d="M3 4,4 3,1916    3,1917    4,1917 1077,1916 1078,1157 1078,1156 1077,1178 1060,1201 1039,1202 1039,1228 1013,1228 1012,1238 1001,1247  988,1254  988,1255  989,1262  989,1263  990,1270  990,1271  991,1278  991,1279  992,1288  992,1289  993,1298  993,1299  994,1308  994,1309  995,1329  995,1330  996,1354  996,1355  995,1366  995,1367  994,1374  994,1375  993,1382  993,1383  992,1394  991,1395  990,1410  987,1417  984,1420  984,1433  978,1444  968,1450  955,1450  953,1457  934,1457  931,1461  921,1461  918,1464  911,1464  908,1467  901,1467  898,1470  891,1471  884,1475  873,1476  865,1478  861,1478  858,1480  853,1480  849,1482  844,1483  830,1487  822,1487  820,1490  813,1492  802,1494  798,1494  795,1495  794,1498  779,1500  775,1500  772,1501  771,1504  756,1506  752,1506  749,1507  748,1507  745,1508  744,1508  741,1509  740,1509  737,1510  736,1510  733,1512  728,1512  721,1513  720,1512  710,1508  703,1508  699,1504  692,1494  683,1471  672,1466  671,1463  669,1461  669,1460  668,1458  668,1457  667,1455  667,1454  666,1452  666,1451  665,1449  665,1427  657,1424  657,1417  654,1414  654,1410  652,1407  652,1406  651,1403  651,1402  650,1399  650,1398  649,1395  649,1390  647,1386  647,1381  645,1377  645,1376  644,1369  643,1364  632,1359  625,1354  620,1346  614,1332  608,1328  608,1327  607,1312  607,1306  597,1298  589,1292  585,1282  580,1280  580,1276  578,1273  578,1272  577,1268  577,1267  576,1244  576,1243  577,1241  577,1232  568,1222  563,1216  562,1215  561,1210  561,1209  560,1194  561,1193  562,1189  562,1188  563,1172  563,1171  564,1162  564,1161  565,1150  566,1149  567,1142  568,1141  569,1127  573,1112  580,1109  575,1108  575,1103  570,1094  565,1092  565,1088  563,1085  563,1080  561,1073  561,1072  560,1057  560,1056  561,1048  561,1047  562,1043  562,1042  563,1039  563,1038  564,1027  567,1013  574,1001  582,984 598,971 616,962 633,962 635,960 638,960 640,957 647,957 650,955 655,955 659,954 660,954 666,953 667,953 692,954 693,955 703,956 704,957 709,959 712,959 714,963 721,970 729,977 734,983 737,985 737,987 739,986 741,986 745,985 746,985 750,984 751,984 756,982 761,982 766,981 767,980 775,979 776,979 780,978 781,978 785,977 786,977 791,976 792,976 796,975 797,975 801,974 802,974 806,973 807,973 811,972 812,972 816,971 817,971 822,970 823,970 827,969 828,969 832,968 833,968 837,967 838,967 842,966 843,966 847,965 848,963 862,962 863,961 871,960 872,960 877,959 878,959 900,960 901,961 907,964 913,969 918,969 919,963 922,961 924,954 927,951 931,943 931,942 932,932 932,931 931,925 930,917 926,909 920,901 912,889 895,871 860,871 858,866 849,866 847,859 833,859 831,853 818,852 813,850 810,849 805,847 802,844 791,842 788,842 786,835 767,835 764,831 754,831 751,829 747,829 744,827 740,827 737,825 733,824 726,822 722,822 719,821 718,821 715,820 714,820 711,819 710,819 707,817 702,817 698,816 697,816 694,814 689,813 680,815 678,833 668,861 648,865 644,871 640,878 633,879 633,908 604,908 603,925 583,927 579,930 576,938 564,946 549,948 547,964 514,964 512,970 499,970 497,978 475,978 472,980 468,980 465,981 464,981 461,982 460,982 457,984 452,984 448,985 447,985 443,986 442,986 438,987 437,987 432,988 431,988 426,989 425,989 418,990 417,990 410,991 409,991 399,992 398,992 377,993 376,993 365,992 364,992 342,991 341,991 332,990 331,990 324,989 323,988 311,986 306,986 302,985 301,985 297,984 296,982 285,980 281,980 278,979 277,973 257,971 254,970 249,965 239,965 237,960 228,960 226,956 218,954 216,949 205,947 203,940 190,926 169,909 148,909 147,891 128,891 127,873 110,872 110,867 105,866 105,853  94,828  77,792  58,790  58,785  55,783  55,778  52,773  51,770  49,765  48,762  46,760  46,753  43,750  43,746  41,743  41,739  39,736  39,735  38,732  38,727  36,723  36,722  35,719  35,714  33,709  33,708  32,698  31,697  30,691  30,690  29,684  29,683  28,676  28,675  27,661  27,660  26,620  26,619  27,605  27,604  28,596  28,595  29,584  30,583  31,569  33,568  34,565  34,564  35,549  38,548  39,525  46,522  48,520  48,517  50,510  52,505  55,503  55,483  65,481  67,474  70,472  72,459  79,441  91,421 106,409 117,408 117,375 151,375 152,358 173,348 188,347 191,342 198,339 205,337 207,322 239,322 241,320 244,319 249,317 252,317 254,311 270,310 277,309 278,307 288,306 289,305 298,304 299,303 307,302 308,302 312,301 313,301 317,300 318,299 330,298 331,298 338,297 339,297 347,296 348,296 362,295 363,295 392,296 393,296 408,297 409,297 417,298 418,298 425,299 426,299 432,300 433,301 443,302 444,303 452,304 453,304 456,305 457,305 460,306 461,306 464,310 475,311 481,313 484,315 492,317 495,317 497,319 500,321 507,324 512,324 514,334 534,333 535,322 538,319 540,317 540,310 544,308 544,288 554,286 556,277 560,275 562,263 568,256 573,251 575,246 579,235 585,208 603,164 636,146 652,145 652,138 659,137 659,129 667,128 667,118 677,117 677, 76 718, 76 719, 66 729, 66 730, 58 738, 58 739, 42 757, 42 758, 38 762, 38 763, 34 767, 34 768, 30 772, 18 788,  7 805,  4 808,  3 807,3 5"/></svg>